<svg width="14" height="14" viewBox="0 0 14 14" fill="none" xmlns="http://www.w3.org/2000/svg">
<path fill-rule="evenodd" clip-rule="evenodd" d="M9.92687 2.20825C10.1578 2.38365 10.2027 2.71301 10.0273 2.94389L5.96345 8.29289C5.86968 8.41633 5.72614 8.49201 5.57131 8.49966C5.41648 8.5073 5.26618 8.44613 5.1607 8.33253L2.903 5.90116C2.70571 5.68869 2.71801 5.35651 2.93048 5.15921C3.14296 4.96191 3.47514 4.97422 3.67244 5.18669L5.50518 7.16042L9.19124 2.30869C9.36664 2.07781 9.696 2.03284 9.92687 2.20825Z" fill="#DCDADA"/>
<path fill-rule="evenodd" clip-rule="evenodd" d="M11.6972 3.85254C11.9268 4.02964 11.9693 4.35932 11.7922 4.5889L6.6663 11.2336C6.66084 11.2407 6.65536 11.2478 6.64987 11.2549C6.54812 11.3869 6.44075 11.5262 6.33527 11.6291C6.21354 11.7479 6.02899 11.8848 5.76628 11.8978C5.50358 11.9108 5.30641 11.7928 5.17355 11.6866C5.05841 11.5947 4.93782 11.4667 4.82353 11.3453C4.81736 11.3388 4.8112 11.3323 4.80507 11.3258L2.24165 8.60698C2.04274 8.39602 2.05251 8.06375 2.26348 7.86484C2.47444 7.66593 2.80671 7.67571 3.00562 7.88667L5.56904 10.6055C5.62444 10.6642 5.66972 10.7122 5.70962 10.7531C5.74529 10.7084 5.78561 10.6562 5.83493 10.5923L10.9609 3.94755C11.138 3.71798 11.4677 3.67544 11.6972 3.85254Z" fill="#DCDADA"/>
</svg>
