<svg width="14" height="15" viewBox="0 0 14 15" fill="none" xmlns="http://www.w3.org/2000/svg">
<path d="M5.58698 6.56626C5.29882 6.56626 5.06537 6.80146 5.06537 7.0914V10.4992C5.06537 10.7892 5.29882 11.0244 5.58698 11.0244C5.87514 11.0244 6.10859 10.7892 6.10859 10.4992V7.0914C6.10859 6.80146 5.87514 6.56626 5.58698 6.56626Z" fill="#DCDADA"/>
<path d="M8.29442 6.56626C8.00626 6.56626 7.77282 6.80146 7.77282 7.0914V10.4992C7.77282 10.7892 8.00626 11.0244 8.29442 11.0244C8.58258 11.0244 8.81603 10.7892 8.81603 10.4992V7.0914C8.81603 6.80146 8.58258 6.56626 8.29442 6.56626Z" fill="#DCDADA"/>
<path fill-rule="evenodd" clip-rule="evenodd" d="M10.1577 2.53103C10.1747 2.69642 10.1814 2.88494 10.184 3.09562C10.2433 3.10211 10.3012 3.10924 10.3577 3.11708C11.0031 3.20677 11.5456 3.39928 11.9621 3.85015C12.3786 4.30101 12.5302 4.85974 12.5724 5.51436C12.6132 6.14544 12.5557 6.94528 12.4844 7.93823L12.283 10.741C12.2206 11.6096 12.1701 12.3127 12.0579 12.8646C11.9411 13.439 11.7449 13.9204 11.3422 14.2977C10.9394 14.6749 10.4484 14.8372 9.87096 14.9131C9.31617 14.986 8.61611 14.986 7.75129 14.986H6.35255C5.51072 14.986 4.82864 14.986 4.28663 14.9157C3.72217 14.8425 3.24106 14.6859 2.84183 14.3226C2.44261 13.9593 2.2395 13.4931 2.11029 12.935C1.98622 12.3991 1.9175 11.7158 1.83268 10.8724L1.55079 8.06979C1.44847 7.05268 1.36614 6.23422 1.3902 5.58776C1.41515 4.91773 1.55573 4.34359 1.97422 3.87735C2.39272 3.41111 2.94587 3.21239 3.60542 3.11988C3.64593 3.1142 3.68717 3.10888 3.72916 3.10389C3.73168 2.88988 3.73829 2.69858 3.75554 2.53103C3.78508 2.24413 3.85026 1.96805 4.02022 1.71822C4.13698 1.54659 4.28431 1.39823 4.45477 1.28066C4.7029 1.1095 4.9771 1.04386 5.26205 1.01411C5.5319 0.985939 5.86446 0.98595 6.25398 0.985962H7.65995C8.04948 0.98595 8.38135 0.985939 8.6512 1.01411C8.93615 1.04386 9.21036 1.1095 9.45849 1.28066C9.62894 1.39823 9.77628 1.54659 9.89303 1.71822C10.063 1.96805 10.1282 2.24413 10.1577 2.53103ZM9.12006 2.63932C9.13143 2.74977 9.13703 2.87887 9.13978 3.03788C8.77916 3.03064 8.3832 3.03064 7.9504 3.03065H6.07396C5.59737 3.03064 5.16447 3.03063 4.77344 3.03986C4.77618 2.87994 4.78178 2.75023 4.7932 2.63932C4.814 2.43728 4.84951 2.35788 4.88092 2.31171C4.92485 2.24714 4.98028 2.19132 5.04439 2.1471C5.09022 2.11549 5.16903 2.07974 5.36965 2.0588C5.57929 2.03691 5.8566 2.03625 6.27977 2.03625H7.63348C8.05665 2.03625 8.33397 2.03691 8.5436 2.0588C8.74422 2.07974 8.82303 2.11549 8.86886 2.1471C8.93298 2.19132 8.98841 2.24714 9.03234 2.31171C9.06375 2.35788 9.09925 2.43728 9.12006 2.63932ZM3.74937 4.16012C4.30529 4.08214 5.0493 4.08094 6.11427 4.08094H7.91068C8.94836 4.08094 9.67251 4.08212 10.215 4.15751C10.7426 4.23082 11.0124 4.36431 11.1982 4.56546C11.3841 4.76663 11.4969 5.04732 11.5314 5.58249C11.5669 6.13281 11.5159 6.8602 11.441 7.90236L11.2451 10.6286C11.1795 11.5425 11.1328 12.177 11.0358 12.6539C10.9419 13.1161 10.8134 13.3583 10.6315 13.5287C10.4497 13.6991 10.2005 13.8106 9.73596 13.8716C9.25656 13.9346 8.6248 13.9357 7.71481 13.9357H6.38849C5.50222 13.9357 4.88753 13.9347 4.41992 13.874C3.9671 13.8153 3.72209 13.7079 3.54141 13.5435C3.36072 13.379 3.22994 13.1444 3.12627 12.6966C3.01923 12.2342 2.95628 11.6185 2.86697 10.7306L2.59276 8.00435C2.48544 6.93743 2.41166 6.19192 2.43269 5.6271C2.45316 5.07736 2.56202 4.78898 2.74822 4.58154C2.93439 4.37412 3.20831 4.23602 3.74937 4.16012Z" fill="#DCDADA"/>
</svg>
